<svg width="14" height="14" viewBox="0 0 14 14" fill="none" xmlns="http://www.w3.org/2000/svg">
<path fill-rule="evenodd" clip-rule="evenodd" d="M6.32252 0.333336C4.72549 0.333336 3.21854 0.955398 2.08489 2.08856C-0.250627 4.42306 -0.250627 8.22563 2.08489 10.5601C3.21843 11.6932 4.71953 12.3154 6.32252 12.3154C7.65835 12.3154 8.92617 11.882 9.96845 11.0805L12.3257 13.4367C12.4829 13.5939 12.6862 13.6667 12.8847 13.6667C13.0801 13.6667 13.2867 13.5957 13.4411 13.4337C13.7428 13.1287 13.7418 12.6285 13.438 12.3249L11.0808 9.96869C11.8826 8.92686 12.3161 7.6596 12.3161 6.32435C12.3161 4.72801 11.6938 3.22172 10.5601 2.08856C9.4266 0.955509 7.92551 0.333336 6.32252 0.333336ZM6.33325 11C8.91058 11 10.9999 8.91066 10.9999 6.33334C10.9999 3.75601 8.91058 1.66667 6.33325 1.66667C3.75592 1.66667 1.66659 3.75601 1.66659 6.33334C1.66659 8.91066 3.75592 11 6.33325 11Z" fill="white"/>
</svg>
